<svg width="15" height="15" viewBox="0 0 15 15" fill="none" xmlns="http://www.w3.org/2000/svg">
<path fill-rule="evenodd" clip-rule="evenodd" d="M0.285805 12.567C-0.0952682 12.9481 -0.0952682 13.5659 0.285805 13.947C0.666878 14.3281 1.28472 14.3281 1.66579 13.947L7.00344 8.60933L12.6076 14.2135C12.9887 14.5946 13.6066 14.5946 13.9876 14.2135C14.3687 13.8325 14.3687 13.2146 13.9876 12.8335L8.38343 7.22934L13.947 1.66579C14.3281 1.28472 14.3281 0.666878 13.947 0.285805C13.5659 -0.0952683 12.9481 -0.095268 12.567 0.285804L7.00344 5.84935L1.70644 0.552349C1.32537 0.171276 0.707525 0.171276 0.326452 0.552349C-0.0546209 0.933422 -0.054621 1.55126 0.326452 1.93234L5.62346 7.22934L0.285805 12.567Z" fill="#C4C4C4"/>
</svg>
