<svg width="15" height="14" viewBox="0 0 15 14" fill="none" xmlns="http://www.w3.org/2000/svg">
<path d="M13.5 0H1.5C1.10218 0 0.720644 0.1475 0.43934 0.41005C0.158035 0.672601 0 1.0287 0 1.4V9.8C0 10.1713 0.158035 10.5274 0.43934 10.7899C0.720644 11.0525 1.10218 11.2 1.5 11.2H6V12.6H3.75V14H11.25V12.6H9V11.2H13.5C13.8978 11.2 14.2794 11.0525 14.5607 10.7899C14.842 10.5274 15 10.1713 15 9.8V1.4C15 1.0287 14.842 0.672601 14.5607 0.41005C14.2794 0.1475 13.8978 0 13.5 0ZM13.5 9.8H1.5V1.4H13.5V9.8Z" fill="white"/>
</svg>
