<svg width="21" height="17" viewBox="0 0 21 17" fill="none" xmlns="http://www.w3.org/2000/svg">
<path d="M20.7804 5.46968L15.5303 0.219587C15.2374 -0.0732689 14.7625 -0.0731809 14.4697 0.219763C14.3291 0.36039 14.2501 0.551027 14.2501 0.749883V2.99991H8.99996C8.58573 2.99991 8.24994 3.33571 8.24994 3.74994C8.24994 4.16418 8.58573 4.49997 8.99996 4.49997H15.0001C15.4143 4.49997 15.7501 4.16418 15.7501 3.74994V2.56037L19.1897 5.99993L15.7501 9.43949V8.24996C15.7501 7.83573 15.4143 7.49994 15.0001 7.49994H6.74993V5.2499C6.74984 4.83567 6.41397 4.49997 5.99977 4.50005C5.80096 4.5001 5.61028 4.57907 5.46966 4.71965L0.219609 9.96974C-0.073203 10.2626 -0.073203 10.7374 0.219609 11.0302L5.4697 16.2803C5.61033 16.421 5.80105 16.5001 5.99995 16.5001C6.09852 16.5004 6.19621 16.481 6.28718 16.4431C6.56738 16.3269 6.75002 16.0534 6.74993 15.7501V13.5001H12C12.4143 13.5001 12.75 13.1643 12.75 12.75C12.75 12.3358 12.4143 12 12 12H5.99995C5.58572 12 5.24993 12.3358 5.24993 12.75V13.9396L1.81036 10.5L5.24993 7.06043V8.24996C5.24993 8.6642 5.58572 8.99999 5.99995 8.99999H14.2501V11.25C14.2501 11.6643 14.586 12 15.0002 11.9999C15.199 11.9998 15.3897 11.9209 15.5303 11.7803L20.7804 6.53018C21.0732 6.23728 21.0732 5.76253 20.7804 5.46968Z" fill="#F21F5B"/>
</svg>
