<svg width="22" height="24" viewBox="0 0 22 24" fill="none" xmlns="http://www.w3.org/2000/svg">
<path d="M11 0C7.63033 0 4.88889 2.83326 4.88889 6.31579C4.88889 9.79832 7.63033 12.6316 11 12.6316C14.3697 12.6316 17.1111 9.79832 17.1111 6.31579C17.1111 2.83326 14.3697 0 11 0ZM11 10.1053C8.97844 10.1053 7.33333 8.40505 7.33333 6.31579C7.33333 4.22653 8.97844 2.52632 11 2.52632C13.0216 2.52632 14.6667 4.22653 14.6667 6.31579C14.6667 8.40505 13.0216 10.1053 11 10.1053ZM22 24V22.7368C22 17.8623 18.161 13.8947 13.4444 13.8947H8.55556C3.83778 13.8947 0 17.8623 0 22.7368V24H2.44444V22.7368C2.44444 19.2543 5.18589 16.4211 8.55556 16.4211H13.4444C16.8141 16.4211 19.5556 19.2543 19.5556 22.7368V24H22Z" fill="#F21F5B"/>
</svg>
