<svg width="21" height="18" viewBox="0 0 21 18" fill="none" xmlns="http://www.w3.org/2000/svg">
<path fill-rule="evenodd" clip-rule="evenodd" d="M4.21838 0.240044C6.31706 -0.179956 9.07725 -0.235081 10.9646 1.64967C11.0255 1.71073 11.0738 1.78319 11.1067 1.86291C11.1396 1.94263 11.1564 2.02806 11.1562 2.11429V16.5518C11.1565 16.6818 11.1181 16.8089 11.046 16.917C10.9739 17.0251 10.8714 17.1094 10.7513 17.1592C10.6312 17.209 10.4991 17.222 10.3716 17.1965C10.2442 17.1711 10.1272 17.1084 10.0354 17.0164C8.92894 15.9087 7.25944 15.6265 5.481 15.8089C3.717 15.9927 1.98975 16.6187 0.95025 17.1385C0.850199 17.1886 0.73899 17.2123 0.627191 17.2074C0.515391 17.2024 0.406716 17.169 0.311494 17.1102C0.216271 17.0514 0.137665 16.9692 0.0831453 16.8715C0.0286255 16.7738 3.75524e-06 16.6637 0 16.5518L0 2.11429C4.08626e-06 1.99252 0.0338892 1.87315 0.0978645 1.76954C0.16184 1.66593 0.253382 1.58216 0.36225 1.52761L0.65625 2.11429L0.36225 1.52761L0.364875 1.52629L0.370125 1.52367L0.387187 1.51579C0.482332 1.46841 0.57861 1.42333 0.675937 1.38061C1.81189 0.871892 3.00026 0.489414 4.21969 0.240044H4.21838ZM1.3125 2.53429V15.5385C2.42287 15.0884 3.864 14.6565 5.34713 14.5043C6.84731 14.3494 8.48006 14.4741 9.84375 15.2393V2.40042C8.44856 1.18111 6.39056 1.14567 4.47563 1.52892C3.38868 1.7513 2.32838 2.08831 1.3125 2.53429Z" fill="#F21F5B"/>
<path fill-rule="evenodd" clip-rule="evenodd" d="M16.7816 0.240044C14.6843 -0.179956 11.9228 -0.235081 10.0354 1.64967C9.97447 1.71073 9.9262 1.78319 9.89332 1.86291C9.86044 1.94263 9.8436 2.02806 9.84375 2.11429V16.5518C9.84352 16.6818 9.88188 16.8089 9.95397 16.917C10.0261 17.0251 10.1286 17.1094 10.2487 17.1592C10.3688 17.209 10.5009 17.222 10.6284 17.1965C10.7558 17.1711 10.8728 17.1084 10.9646 17.0164C12.0711 15.9087 13.7406 15.6265 15.519 15.8089C17.283 15.9927 19.0103 16.6187 20.0498 17.1385C20.1498 17.1886 20.261 17.2123 20.3728 17.2074C20.4846 17.2024 20.5933 17.169 20.6885 17.1102C20.7837 17.0514 20.8623 16.9692 20.9169 16.8715C20.9714 16.7738 21 16.6637 21 16.5518V2.11429C21 1.99252 20.9661 1.87315 20.9021 1.76954C20.8382 1.66593 20.7466 1.58216 20.6378 1.52761L20.3438 2.11429L20.6378 1.52761L20.6351 1.52629L20.6299 1.52367L20.6128 1.51579L20.5511 1.48561C20.2068 1.32484 19.857 1.176 19.5024 1.03936C18.6193 0.697653 17.7092 0.430286 16.7816 0.240044ZM19.6875 2.53429V15.5385C18.5771 15.0884 17.136 14.6565 15.6529 14.5043C14.1527 14.3494 12.5199 14.4741 11.1563 15.2393V2.40042C12.5514 1.18111 14.6094 1.14567 16.5244 1.52892C17.6113 1.75128 18.6716 2.08829 19.6875 2.53429Z" fill="#F21F5B"/>
</svg>
